<?xml version="1.0" encoding="UTF-8"?>
<svg version="1.1" xmlns="http://www.w3.org/2000/svg" width="500" height="500">
<path d="M0 0 C7.2099235 7.58305811 13.77792105 17.11555252 14.125 27.875 C14.08375 28.90625 14.0425 29.9375 14 31 C14.5259375 31.103125 15.051875 31.20625 15.59375 31.3125 C36.38871808 37.25391945 52.5231531 54.11585094 63.2421875 72.08203125 C71.71568644 87.68246535 72.19494334 106.05280498 73.57476807 123.34481812 C75.4318138 146.52689932 77.73109213 169.6539374 80.14399719 192.78370667 C80.4296314 195.52243996 80.71488462 198.26121265 81 201 C81.09609558 201.92113586 81.19219116 202.84227173 81.29119873 203.7913208 C81.57182073 206.49212199 81.84889547 209.19326492 82.125 211.89453125 C82.20811432 212.68949509 82.29122864 213.48445892 82.37686157 214.30351257 C84.24233374 232.70371817 81.96441005 245.87915923 71.44140625 261.28125 C70.96574219 261.8484375 70.49007812 262.415625 70 263 C69.34 263 68.68 263 68 263 C68 263.66 68 264.32 68 265 C53.63604558 277.19879952 39.14250149 280.47762701 20.48999023 280.38818359 C19.10016471 280.39226249 17.71034243 280.39761166 16.32052612 280.40411377 C12.59117942 280.41763563 8.86208538 280.41255269 5.13273501 280.40297651 C1.20307226 280.39530194 -2.726571 280.40244677 -6.65623474 280.40713501 C-13.25027288 280.41256948 -19.84420971 280.40546134 -26.43823242 280.39111328 C-34.02959798 280.37478441 -41.62072176 280.38008629 -49.21208149 280.3965925 C-55.76624906 280.41026549 -62.32034443 280.41209899 -68.87452167 280.40427649 C-72.77319 280.39963261 -76.67174519 280.39888359 -80.57040596 280.40888596 C-84.23715116 280.41763892 -87.90358863 280.4113843 -91.57030106 280.39420319 C-93.53455956 280.38843278 -95.49884452 280.39718169 -97.46308899 280.40658569 C-114.23714064 280.28842092 -127.21033041 275.86181498 -140 265 C-140 264.34 -140 263.68 -140 263 C-140.66 263 -141.32 263 -142 263 C-153.19899963 250.24950168 -155.70964549 236.26584232 -155 220 C-154.54548098 213.63105996 -153.81393726 207.28873579 -153.09173584 200.94558716 C-152.49497318 195.69265815 -151.92986713 190.43636204 -151.3671875 185.1796875 C-151.2510611 184.09665848 -151.13493469 183.01362946 -151.01528931 181.89778137 C-149.77276746 170.13530292 -148.81477462 158.35235734 -147.875 146.5625 C-146.6627591 131.42373539 -145.32801088 116.34549602 -143.29296875 101.29052734 C-142.99234684 98.94016507 -142.75389525 96.58826821 -142.51953125 94.23046875 C-140.36582379 74.64055223 -127.02216299 56.51001344 -112.015625 44.3984375 C-107.42108939 41 -107.42108939 41 -105 41 C-105 40.34 -105 39.68 -105 39 C-102.3773768 37.66180502 -99.75213401 36.3292849 -97.125 35 C-96.37863281 34.6184375 -95.63226563 34.236875 -94.86328125 33.84375 C-94.14785156 33.4828125 -93.43242187 33.121875 -92.6953125 32.75 C-92.03547363 32.41484375 -91.37563477 32.0796875 -90.69580078 31.734375 C-89 31 -89 31 -87 31 C-87.00902344 30.42894531 -87.01804687 29.85789063 -87.02734375 29.26953125 C-86.59197774 17.3632174 -79.75414179 8.21403646 -71.91796875 -0.26953125 C-70 -2 -70 -2 -68 -2 C-68 -2.66 -68 -3.32 -68 -4 C-44.95718624 -18.09446645 -21.23250773 -17.98736462 0 0 Z M-59 13 C-59 13.66 -59 14.32 -59 15 C-59.66 15 -60.32 15 -61 15 C-61 15.66 -61 16.32 -61 17 C-61.66 17 -62.32 17 -63 17 C-65.35910353 21.2637281 -65.35910353 21.2637281 -66 26 C-46.2 26 -26.4 26 -6 26 C-8.8624884 17.4125348 -11.70817161 13.98611191 -19 9 C-19.825 8.4225 -20.65 7.845 -21.5 7.25 C-34.39755778 0.80122111 -48.24940658 3.92172111 -59 13 Z M-88.5625 51.875 C-89.54379883 52.39054443 -89.54379883 52.39054443 -90.54492188 52.91650391 C-95.39874141 55.52367766 -99.84209075 58.36182941 -104 62 C-104 62.66 -104 63.32 -104 64 C-104.66 64 -105.32 64 -106 64 C-107.70137025 65.92119331 -109.26613194 67.83402053 -110.8125 69.875 C-111.48744507 70.76312378 -111.48744507 70.76312378 -112.17602539 71.66918945 C-121.31903548 83.95982034 -124.26249526 96.50443058 -125.75 111.5625 C-125.90883818 113.0999057 -126.06820598 114.63725674 -126.22802734 116.17456055 C-126.8388104 122.11440954 -127.4195003 128.05712669 -128 134 C-128.13339343 135.36190067 -128.26681772 136.72379831 -128.40026855 138.08569336 C-129.4848172 149.16036644 -130.55829539 160.23609461 -131.625 171.3125 C-131.7396183 172.50213789 -131.7396183 172.50213789 -131.85655212 173.71580887 C-132.72999428 182.78744301 -133.59102795 191.86000949 -134.42668152 200.93520641 C-134.8368201 205.35454838 -135.28828267 209.76794038 -135.76074219 214.18115234 C-135.97351696 216.30173679 -136.18609739 218.42234074 -136.3984375 220.54296875 C-136.50604401 221.45855057 -136.61365051 222.37413239 -136.72451782 223.31745911 C-137.47393028 231.16265027 -136.1819314 238.92121127 -131.9375 245.6875 C-130.9784375 246.8321875 -130.9784375 246.8321875 -130 248 C-129.34 248 -128.68 248 -128 248 C-128 248.66 -128 249.32 -128 250 C-127.34 250 -126.68 250 -126 250 C-126 250.66 -126 251.32 -126 252 C-124.65597105 253.33160956 -124.65597105 253.33160956 -122.875 254.5625 C-122.29492188 254.99691406 -121.71484375 255.43132812 -121.1171875 255.87890625 C-118.46100882 257.28540677 -115.95572707 257.55686741 -113 258 C-112.99635437 256.89467926 -112.99270874 255.78935852 -112.98895264 254.65054321 C-112.95192032 244.20502135 -112.89405777 233.75979205 -112.81609726 223.31449318 C-112.77668368 217.94516449 -112.74446515 212.5759983 -112.72900391 207.20654297 C-112.71379708 202.01919749 -112.67928001 196.83229894 -112.63169098 191.64515305 C-112.61691866 189.67178622 -112.60896138 187.69835556 -112.60811615 185.72493362 C-112.58803208 162.33398185 -112.58803208 162.33398185 -105.25 155 C-104.13625 154.01 -104.13625 154.01 -103 153 C-103 152.34 -103 151.68 -103 151 C-101.948125 150.5978125 -101.948125 150.5978125 -100.875 150.1875 C-97.93874995 149.02426334 -97.93874995 149.02426334 -95 147.4375 C-89.21778746 144.66685649 -83.60998705 144.84658817 -77.31958008 144.83886719 C-75.86491333 144.83141983 -75.86491333 144.83141983 -74.38085938 144.82382202 C-71.17707606 144.80923485 -67.9733423 144.80240354 -64.76953125 144.796875 C-62.53618875 144.79112001 -60.30284627 144.78536232 -58.06950378 144.77960205 C-53.38642141 144.76910137 -48.70335616 144.76325283 -44.02026367 144.75976562 C-38.03625826 144.75428781 -32.05248118 144.73027088 -26.06854725 144.70179367 C-21.45384574 144.68311544 -16.83919862 144.67795889 -12.22446251 144.67642975 C-10.01938315 144.6734136 -7.81430452 144.66542033 -5.60926247 144.65224457 C-2.51513225 144.63507833 0.57844815 144.63709034 3.67260742 144.64355469 C4.57322403 144.6343399 5.47384064 144.62512512 6.40174866 144.6156311 C16.30624374 144.68004358 24.71229168 147.10270463 32 154 C41.64784395 164.25083419 40.46913182 178.12091266 40.51171875 191.2265625 C40.52858551 193.18526318 40.54673841 195.14395317 40.56611633 197.10263062 C40.6134056 202.22842059 40.64335088 207.3541672 40.66955566 212.48010254 C40.69946803 217.7224992 40.74596145 222.96474673 40.79101562 228.20703125 C40.87680872 238.47127582 40.9442602 248.73555128 41 259 C49.55207424 256.27818649 56.74922664 251.08316351 61 243 C62.23016957 240.04862679 63.22337033 237.10127119 64 234 C64.32291016 232.71802734 64.32291016 232.71802734 64.65234375 231.41015625 C65.15311991 226.49804849 64.4387121 221.88223115 63.8125 217 C62.43409827 205.47969935 61.34464197 193.95265645 60.36920166 182.3918457 C58.91788052 165.20524343 57.39993822 148.02512434 55.75701904 130.85571289 C55.54657463 128.64554404 55.33902213 126.43509762 55.13458252 124.22436523 C53.34127564 101.92936356 53.34127564 101.92936356 46 81 C45.4225 79.824375 44.845 78.64875 44.25 77.4375 C43.63125 76.2309375 43.63125 76.2309375 43 75 C42.34 75 41.68 75 41 75 C40.814375 74.34 40.62875 73.68 40.4375 73 C37.33649532 66.52833806 32.23261473 61.47866869 26 58 C25.34 58 24.68 58 24 58 C24 57.34 24 56.68 24 56 C9.08589482 47.18036305 -5.30324146 43.8839494 -22.55859375 43.76171875 C-23.66115005 43.753647 -24.76370636 43.74557526 -25.89967346 43.73725891 C-28.22859148 43.72347699 -30.55752919 43.71272871 -32.88647461 43.70483398 C-35.23777301 43.69335635 -37.58904623 43.67297223 -39.94018555 43.64331055 C-56.82640511 43.43076338 -73.37470215 43.50341263 -88.5625 51.875 Z M-92 167 C-96.49071198 174.86338998 -96.49071198 174.86338998 -95 193 C-56.39 193 -17.78 193 22 193 C23.4108019 179.27006792 23.4108019 179.27006792 20 167 C19.34 167 18.68 167 18 167 C18 166.34 18 165.68 18 165 C15.12573539 163.37122678 13.05915154 162.74779274 9.76296997 162.73257446 C8.50560532 162.71977951 8.50560532 162.71977951 7.22283936 162.70672607 C5.85593964 162.70808563 5.85593964 162.70808563 4.46142578 162.70947266 C3.49512238 162.70275543 2.52881897 162.69603821 1.53323364 162.68911743 C-1.66279231 162.67011157 -4.85860855 162.66621193 -8.0546875 162.6640625 C-10.27662238 162.65763645 -12.49855641 162.65090824 -14.7204895 162.64389038 C-19.37927207 162.63191119 -24.03798046 162.62821023 -28.69677734 162.62939453 C-34.664487 162.62959777 -40.6317207 162.60229295 -46.59931755 162.56785011 C-51.18899722 162.54560548 -55.77856189 162.54155625 -60.36828995 162.54261398 C-62.56830613 162.54025446 -64.76832531 162.53141123 -66.96828842 162.51594925 C-70.04674295 162.49633883 -73.12416533 162.50210828 -76.20263672 162.51416016 C-77.10985474 162.50292114 -78.01707275 162.49168213 -78.95178223 162.48010254 C-84.42310218 162.53449253 -87.78758958 163.16468625 -92 167 Z M-95 212 C-96.97767812 235.90207181 -96.97767812 235.90207181 -94 259 C-90.83985438 261.10676374 -90.09192244 261.2514886 -86.48339844 261.26069641 C-85.55805298 261.26778122 -84.63270752 261.27486603 -83.67932129 261.28216553 C-82.15969788 261.2784494 -82.15969788 261.2784494 -80.609375 261.2746582 C-79.54086304 261.27976913 -78.47235107 261.28488007 -77.37145996 261.29014587 C-73.83091672 261.30407378 -70.29056741 261.30308284 -66.75 261.30078125 C-64.29524665 261.30466608 -61.84049398 261.30900031 -59.38574219 261.31376648 C-54.23760805 261.32123534 -49.08954249 261.32093232 -43.94140625 261.31567383 C-37.33336702 261.3098748 -30.72560767 261.3268177 -24.11761475 261.3500185 C-19.04767202 261.36472513 -13.97779719 261.36563179 -8.90783691 261.36250877 C-6.47090093 261.36302342 -4.03396128 261.36828776 -1.5970459 261.37832069 C1.80528144 261.39060972 5.20705699 261.38393877 8.609375 261.37231445 C10.12899841 261.38378006 10.12899841 261.38378006 11.67932129 261.39547729 C12.60466675 261.38846298 13.53001221 261.38144867 14.48339844 261.3742218 C15.28791443 261.37438954 16.09243042 261.37455729 16.92132568 261.37473011 C19.44696654 261.12347244 19.44696654 261.12347244 22 258 C22 242.82 22 227.64 22 212 C-16.61 212 -55.22 212 -95 212 Z " fill="#7B8636" transform="translate(287,110)"/>
<path d="M0 0 C0 3 0 3 -1 5 C-7.47966831 6.3754619 -14.3796499 6.13706403 -20.97607422 6.09765625 C-21.91720566 6.09619598 -22.8583371 6.09473572 -23.82798767 6.0932312 C-25.85167856 6.08945333 -27.87536624 6.08336709 -29.89904404 6.07516479 C-33.10182102 6.06231084 -36.30455622 6.05586337 -39.50735474 6.05102539 C-46.29658874 6.03964989 -53.08578786 6.02038334 -59.875 6 C-67.76607131 5.97638859 -75.65712329 5.95602299 -83.54822159 5.94406128 C-86.70355095 5.93757937 -89.85882016 5.92507677 -93.01412964 5.91235352 C-94.94285022 5.90872204 -96.87157135 5.90537018 -98.80029297 5.90234375 C-100.1156881 5.89459427 -100.1156881 5.89459427 -101.45765686 5.88668823 C-102.66848686 5.88658249 -102.66848686 5.88658249 -103.90377808 5.88647461 C-104.60241407 5.884254 -105.30105007 5.88203339 -106.02085686 5.87974548 C-108.05031278 5.92823052 -108.05031278 5.92823052 -110.11538887 6.62818909 C-110.73731054 6.75088669 -111.35923222 6.87358429 -112 7 C-114.25 5.0625 -114.25 5.0625 -116 3 C-113.49433175 3 -110.98902564 3.00805205 -108.48339844 3.02018738 C-95.61641826 3.08047247 -82.74947444 3.12589253 -69.88238525 3.15543652 C-63.2743943 3.17112811 -56.66651847 3.19244044 -50.05859375 3.22631836 C-43.67499658 3.25883713 -37.2915105 3.27683623 -30.90783691 3.28463173 C-28.47088874 3.29018607 -26.03394683 3.30103196 -23.5970459 3.31719017 C-20.19477006 3.33886639 -16.79295842 3.3419711 -13.390625 3.34057617 C-12.37754272 3.351362 -11.36446045 3.36214783 -10.32067871 3.3732605 C-8.93266052 3.36707451 -8.93266052 3.36707451 -7.51660156 3.36076355 C-6.30982758 3.36491162 -6.30982758 3.36491162 -5.07867432 3.36914349 C-2.51529846 2.91392379 -1.62893646 1.97639105 0 0 Z " fill="#7F8751" transform="translate(309,367)"/>
<path d="M0 0 C2.475 0.99 2.475 0.99 5 2 C4.67 3.98 4.34 5.96 4 8 C3.29256149 8.01030746 2.58512299 8.02061493 1.85624695 8.03123474 C-4.80931238 8.12919521 -11.47478432 8.23170763 -18.14019489 8.33933926 C-21.56698228 8.39451353 -24.99377828 8.44792466 -28.4206543 8.49731445 C-32.35995251 8.55416665 -36.2991074 8.61867312 -40.23828125 8.68359375 C-42.0852636 8.70866249 -42.0852636 8.70866249 -43.96955872 8.73423767 C-45.68099312 8.7641555 -45.68099312 8.7641555 -47.42700195 8.79467773 C-48.93590752 8.81799416 -48.93590752 8.81799416 -50.47529602 8.84178162 C-53.12604053 8.8996397 -53.12604053 8.8996397 -56 10 C-56.66 9.67 -57.32 9.34 -58 9 C-57.67 7.68 -57.34 6.36 -57 5 C-57 5.66 -57 6.32 -57 7 C-37.2 7 -17.4 7 3 7 C2.01 4.69 1.02 2.38 0 0 Z " fill="#7F894A" transform="translate(278,129)"/>
<path d="M0 0 C0 0.33 0 0.66 0 1 C-3.63 1 -7.26 1 -11 1 C-11 0.34 -11 -0.32 -11 -1 C-12.5843317 -0.91231752 -14.16753567 -0.80412671 -15.75 -0.6875 C-16.63171875 -0.62949219 -17.5134375 -0.57148437 -18.421875 -0.51171875 C-21.33705574 0.06690046 -22.72169878 1.15259488 -25 3 C-25.66 3 -26.32 3 -27 3 C-27.33 3.99 -27.66 4.98 -28 6 C-30 4.625 -30 4.625 -32 3 C-32 2.34 -32 1.68 -32 1 C-32.99 0.67 -33.98 0.34 -35 0 C-23.80350169 -3.25716314 -11.19649831 -3.25716314 0 0 Z " fill="#848D48" transform="translate(268,98)"/>
<path d="M0 0 C0.33 0 0.66 0 1 0 C1.31323688 34.2820358 1.31323688 34.2820358 -3 39 C-2.43869711 25.9423222 -1.41021227 12.9931208 0 0 Z " fill="#939A67" transform="translate(143,214)"/>
<path d="M0 0 C0.33 0 0.66 0 1 0 C1.13277344 1.21558594 1.26554687 2.43117188 1.40234375 3.68359375 C1.58050091 5.26825484 1.75889875 6.8528889 1.9375 8.4375 C2.02451172 9.23994141 2.11152344 10.04238281 2.20117188 10.86914062 C2.30548394 14.75576664 2.30548394 14.75576664 4 18 C4.08700342 19.63472882 4.10701063 21.27314055 4.09765625 22.91015625 C4.09443359 23.89951172 4.09121094 24.88886719 4.08789062 25.90820312 C4.07951172 26.94912109 4.07113281 27.99003906 4.0625 29.0625 C4.05798828 30.10728516 4.05347656 31.15207031 4.04882812 32.22851562 C4.03699913 34.8190666 4.02051689 37.40950559 4 40 C3.67 40 3.34 40 3 40 C2.56933622 35.26804351 2.14220251 30.53578621 1.71826172 25.80322266 C1.57371171 24.19506336 1.42821662 22.58698871 1.28173828 20.97900391 C1.07072247 18.66070093 0.86316643 16.34210952 0.65625 14.0234375 C0.55781799 12.95432632 0.55781799 12.95432632 0.45739746 11.86361694 C0.10702141 7.89533201 -0.06538891 3.98327448 0 0 Z " fill="#A1A674" transform="translate(347,291)"/>
<path d="M0 0 C0.66 0.33 1.32 0.66 2 1 C0 4 0 4 -3 5 C-4.39300182 6.95890881 -5.72245446 8.9639118 -7 11 C-8.5625 13.375 -8.5625 13.375 -10 15 C-10.99 15 -11.98 15 -13 15 C-11.7580393 11.56072421 -10.44259716 8.74792181 -8 6 C-7.34 6 -6.68 6 -6 6 C-6 5.34 -6 4.68 -6 4 C-4.03852126 2.61061923 -2.03833424 1.2739589 0 0 Z " fill="#8E955F" transform="translate(190,257)"/>
<path d="M0 0 C1.13598633 0.00483398 1.13598633 0.00483398 2.29492188 0.00976562 C3.47344727 0.02233398 3.47344727 0.02233398 4.67578125 0.03515625 C5.47306641 0.03966797 6.27035156 0.04417969 7.09179688 0.04882812 C9.05732382 0.06059775 11.0228121 0.07853277 12.98828125 0.09765625 C12.98828125 0.42765625 12.98828125 0.75765625 12.98828125 1.09765625 C11.8075 1.37480469 10.62671875 1.65195313 9.41015625 1.9375 C7.85286109 2.30337055 6.29556962 2.66925679 4.73828125 3.03515625 C3.96097656 3.21755859 3.18367187 3.39996094 2.3828125 3.58789062 C1.25166016 3.85375977 1.25166016 3.85375977 0.09765625 4.125 C-0.9392334 4.36851196 -0.9392334 4.36851196 -1.99707031 4.61694336 C-4.00570976 5.09622245 -6.00928817 5.59312227 -8.01171875 6.09765625 C-7.68171875 4.44765625 -7.35171875 2.79765625 -7.01171875 1.09765625 C-4.30455633 0.19526878 -2.77395107 -0.02085677 0 0 Z " fill="#8C945C" transform="translate(211.01171875,153.90234375)"/>
<path d="M0 0 C2.37946437 2.37946437 2.29598679 2.87740108 2.3125 6.125 C2.1925834 13.53802605 0.50734539 20.76833106 -1 28 C-1.33 28 -1.66 28 -2 28 C-1.85929844 24.83308393 -1.71148731 21.66653622 -1.5625 18.5 C-1.52318359 17.613125 -1.48386719 16.72625 -1.44335938 15.8125 C-1.18915913 10.49384873 -0.73323663 5.2743744 0 0 Z " fill="#8B9356" transform="translate(137,282)"/>
<path d="M0 0 C0.33 0 0.66 0 1 0 C1.34197019 3.12411592 1.67192253 6.24939708 2 9.375 C2.14308594 10.68017578 2.14308594 10.68017578 2.2890625 12.01171875 C2.91321115 18.03029503 3.11723906 23.95079012 3 30 C2.67 30 2.34 30 2 30 C0.21898103 23.16341143 -0.25249204 16.98388717 -0.125 9.9375 C-0.11597656 8.97650391 -0.10695313 8.01550781 -0.09765625 7.02539062 C-0.07435208 4.68332195 -0.04164058 2.34180208 0 0 Z " fill="#8D965E" transform="translate(367,311)"/>
<path d="M0 0 C0.33 1.32 0.66 2.64 1 4 C0.38125 4.2475 -0.2375 4.495 -0.875 4.75 C-3.1362804 5.80516732 -3.1362804 5.80516732 -3.875 7.9375 C-5.55827767 11.02350906 -7.79848362 11.75859569 -11 13 C-11.99 12.67 -12.98 12.34 -14 12 C-12.6022795 9.204559 -10.37337262 8.47112063 -7.71484375 7.01953125 C-5.84285028 5.9065693 -4.49379755 4.57241848 -3 3 C-2.34 3 -1.68 3 -1 3 C-0.67 2.01 -0.34 1.02 0 0 Z " fill="#879054" transform="translate(344,357)"/>
<path d="M0 0 C4.66132863 3.57729872 7.73911534 7.10867301 11 12 C10.67 12.66 10.34 13.32 10 14 C9.236875 13.21625 8.47375 12.4325 7.6875 11.625 C5.09108195 8.92742283 5.09108195 8.92742283 2 7 C0.8125 3.375 0.8125 3.375 0 0 Z " fill="#8F9760" transform="translate(335,163)"/>
<path d="M0 0 C5.28137429 0.51525603 8.57221156 2.25477117 13 5 C12.34 5.66 11.68 6.32 11 7 C8.03 6.01 5.06 5.02 2 4 C2 4.66 2 5.32 2 6 C1.34 5.67 0.68 5.34 0 5 C0 3.35 0 1.7 0 0 Z " fill="#858E51" transform="translate(306,144)"/>
<path d="M0 0 C0.95544559 3.03532715 1.11111941 3.73682246 -0.1875 6.8125 C-0.785625 7.864375 -1.38375 8.91625 -2 10 C-2.3609375 10.64066406 -2.721875 11.28132812 -3.09375 11.94140625 C-4.05120213 13.63404484 -5.02432407 15.31780012 -6 17 C-6.71484375 15.421875 -6.71484375 15.421875 -7 13 C-5.94290501 10.61505544 -4.8682111 8.48765933 -3.5625 6.25 C-3.22412109 5.64800781 -2.88574219 5.04601562 -2.53710938 4.42578125 C-1.70231735 2.94431935 -0.85258506 1.47129392 0 0 Z " fill="#939C67" transform="translate(208,118)"/>
<path d="M0 0 C17.85649203 -0.3690205 17.85649203 -0.3690205 26 2 C26 2.33 26 2.66 26 3 C22.37 3 18.74 3 15 3 C15 2.34 15 1.68 15 1 C10.05 1 5.1 1 0 1 C0 0.67 0 0.34 0 0 Z " fill="#929D63" transform="translate(242,96)"/>
<path d="M0 0 C1.32 0 2.64 0 4 0 C4 0.66 4 1.32 4 2 C4.61875 2.28875 5.2375 2.5775 5.875 2.875 C8 4 8 4 10 6 C9.625 8.125 9.625 8.125 9 10 C7.29115995 8.37660195 5.62553283 6.70680947 4 5 C4 4.34 4 3.68 4 3 C2.68 2.34 1.36 1.68 0 1 C0 0.67 0 0.34 0 0 Z " fill="#8E955A" transform="translate(315,169)"/>
<path d="M0 0 C0.66 0 1.32 0 2 0 C1.67 4.95 1.34 9.9 1 15 C-1.19511447 12.80488553 -1.56329347 11.9976399 -2 9 C-1.66015625 6.640625 -1.66015625 6.640625 -1.0625 4.25 C-0.86785156 3.45078125 -0.67320312 2.6515625 -0.47265625 1.828125 C-0.31667969 1.22484375 -0.16070312 0.6215625 0 0 Z " fill="#90995E" transform="translate(155,269)"/>
<path d="M0 0 C0.33 0 0.66 0 1 0 C1.33 6.6 1.66 13.2 2 20 C-1.45015205 15.39979727 -1.22331682 13.11765168 -0.6875 7.75 C-0.62626953 7.00492188 -0.56503906 6.25984375 -0.50195312 5.4921875 C-0.3492857 3.66017845 -0.17660246 1.82985684 0 0 Z " fill="#9CA26F" transform="translate(358,215)"/>
<path d="M0 0 C0.33 0 0.66 0 1 0 C2.10087193 7.01805857 2.09733092 13.90565767 2 21 C1.67 21 1.34 21 1 21 C0.95101563 20.39671875 0.90203125 19.7934375 0.8515625 19.171875 C0.77679688 18.37265625 0.70203125 17.5734375 0.625 16.75 C0.55539062 15.96109375 0.48578125 15.1721875 0.4140625 14.359375 C-0.01507113 11.914123 -0.78600638 10.15163097 -2 8 C-1.67 7.67 -1.34 7.34 -1 7 C-0.63239269 4.67182036 -0.29758419 2.3381615 0 0 Z " fill="#939C67" transform="translate(364,281)"/>
<path d="M0 0 C1.9375 2.5625 1.9375 2.5625 3 5 C2.01 5.495 2.01 5.495 1 6 C-1.38665879 4.71827583 -3.68520414 3.39712623 -6 2 C-7.32646156 1.3197633 -8.65608877 0.64507739 -10 0 C-6.17853346 -1.27382218 -3.89335307 -0.97333827 0 0 Z " fill="#8E9755" transform="translate(269,115)"/>
<path d="M0 0 C0 4.10202215 -1.4911355 5.81306402 -4 9 C-6.75 10.375 -6.75 10.375 -9 11 C-6.36113346 6.7973607 -3.63559661 3.43361902 0 0 Z " fill="#949C66" transform="translate(169,160)"/>
<path d="M0 0 C0.99 0 1.98 0 3 0 C3.66 3.3 4.32 6.6 5 10 C4.01 9.34 3.02 8.68 2 8 C2 7.34 2 6.68 2 6 C1.34 6 0.68 6 0 6 C0 4.02 0 2.04 0 0 Z " fill="#899156" transform="translate(148,341)"/>
<path d="M0 0 C1.37562854 1.28965176 2.70766393 2.62689293 4 4 C4 4.66 4 5.32 4 6 C4.66 6 5.32 6 6 6 C6 6.66 6 7.32 6 8 C6.66 8 7.32 8 8 8 C8 8.66 8 9.32 8 10 C6.125 9.6875 6.125 9.6875 4 9 C3.34 8.01 2.68 7.02 2 6 C1.34 6 0.68 6 0 6 C0 4.02 0 2.04 0 0 Z " fill="#8D9460" transform="translate(153,352)"/>
<path d="M0 0 C0.66 0 1.32 0 2 0 C2 0.99 2 1.98 2 3 C2.66 3 3.32 3 4 3 C3.42655063 5.86724686 3.1385485 6.8614515 1 9 C0 8 0 8 -0.09765625 6.15234375 C-0.06510417 4.1015625 -0.03255208 2.05078125 0 0 Z " fill="#848D4C" transform="translate(138,269)"/>
<path d="M0 0 C4.29 0.66 8.58 1.32 13 2 C13 2.33 13 2.66 13 3 C10.01500302 3.9439734 7.12765393 4.74698841 4 5 C1.4375 3.1875 1.4375 3.1875 0 1 C0 0.67 0 0.34 0 0 Z " fill="#868F56" transform="translate(193,369)"/>
<path d="M0 0 C2.31 0 4.62 0 7 0 C7 4 7 4 6 7 C6 6.34 6 5.68 6 5 C5.34 5 4.68 5 4 5 C4 4.34 4 3.68 4 3 C2.68 2.67 1.36 2.34 0 2 C0 1.34 0 0.68 0 0 Z " fill="#8F9763" transform="translate(301,272)"/>
<path d="M0 0 C0.33 0 0.66 0 1 0 C1.16873478 1.43725871 1.33490737 2.87481838 1.5 4.3125 C1.5928125 5.11300781 1.685625 5.91351563 1.78125 6.73828125 C2 9 2 9 2 12 C1.01 12.33 0.02 12.66 -1 13 C-0.67 8.71 -0.34 4.42 0 0 Z " fill="#949B63" transform="translate(145,200)"/>
<path d="M0 0 C0.33 0.66 0.66 1.32 1 2 C-1 5 -1 5 -3 7 C-5.125 6.625 -5.125 6.625 -7 6 C-5.625 4.5 -5.625 4.5 -4 3 C-3.34 3 -2.68 3 -2 3 C-2 2.34 -2 1.68 -2 1 C-1.34 0.67 -0.68 0.34 0 0 Z " fill="#919863" transform="translate(221,105)"/>
<path d="M0 0 C1 3 1 3 1 5 C0.34 5 -0.32 5 -1 5 C-1.33 5.99 -1.66 6.98 -2 8 C-2.99 8.33 -3.98 8.66 -5 9 C-3.7508258 5.54074837 -2.32472205 2.85306797 0 0 Z " fill="#99A064" transform="translate(159,171)"/>
<path d="M0 0 C2.5408218 4.74286737 3.32502317 7.69990734 2 13 C1.67 13 1.34 13 1 13 C-0.10228696 8.59085217 -0.07654536 4.51617599 0 0 Z " fill="#727C39" transform="translate(347,283)"/>
<path d="M0 0 C0.66 0.33 1.32 0.66 2 1 C1.01 2.485 1.01 2.485 0 4 C-0.99 4 -1.98 4 -3 4 C-3.33 4.99 -3.66 5.98 -4 7 C-4.99 6.67 -5.98 6.34 -7 6 C-4.69 4.02 -2.38 2.04 0 0 Z " fill="#919B6A" transform="translate(177,153)"/>
<path d="M0 0 C1.65 0.33 3.3 0.66 5 1 C1.81237635 3.12508244 -0.26512223 3.5020163 -4 4 C-4 3.34 -4 2.68 -4 2 C-2.68 2 -1.36 2 0 2 C0 1.34 0 0.68 0 0 Z " fill="#A3A879" transform="translate(336,383)"/>
<path d="M0 0 C-2.05233685 2.2477975 -3.00667261 3.0022242 -6 4 C-6 3.34 -6 2.68 -6 2 C-6.66 1.67 -7.32 1.34 -8 1 C-5.29120665 -0.35439668 -2.99066732 -0.06501451 0 0 Z " fill="#949B63" transform="translate(347,380)"/>
<path d="M0 0 C0.33 1.32 0.66 2.64 1 4 C-1.375 5.5625 -1.375 5.5625 -4 7 C-4.66 6.67 -5.32 6.34 -6 6 C-4.625 4.5 -4.625 4.5 -3 3 C-2.34 3 -1.68 3 -1 3 C-0.67 2.01 -0.34 1.02 0 0 Z " fill="#A5AC7A" transform="translate(344,357)"/>
<path d="M0 0 C0.125 3.375 0.125 3.375 0 7 C-0.66 7.66 -1.32 8.32 -2 9 C-2.33 6.36 -2.66 3.72 -3 1 C-1 0 -1 0 0 0 Z " fill="#717E26" transform="translate(360,236)"/>
<path d="M0 0 C0.33 0.99 0.66 1.98 1 3 C1.66 3.33 2.32 3.66 3 4 C2.34 4 1.68 4 1 4 C0.67 4.99 0.34 5.98 0 7 C-0.66 6.34 -1.32 5.68 -2 5 C-1.46428571 1.46428571 -1.46428571 1.46428571 0 0 Z " fill="#929A55" transform="translate(180,170)"/>
<path d="M0 0 C2.475 0.99 2.475 0.99 5 2 C4.67 3.65 4.34 5.3 4 7 C2.10786631 4.61426621 0.97608217 2.92824652 0 0 Z " fill="#979E69" transform="translate(278,129)"/>
</svg>
